<?xml version="1.0" standalone="no"?>
<!DOCTYPE svg PUBLIC "-//W3C//DTD SVG 20010904//EN"
 "http://www.w3.org/TR/2001/REC-SVG-20010904/DTD/svg10.dtd">
<svg version="1.0" xmlns="http://www.w3.org/2000/svg"
 width="2579.000000pt" height="1695.000000pt" viewBox="0 0 2579.000000 1695.000000"
 preserveAspectRatio="xMidYMid meet">
<metadata>
Created by potrace 1.16, written by Peter Selinger 2001-2019
</metadata>
<g transform="translate(0.000000,1695.000000) scale(0.100000,-0.100000)"
fill="#000000" stroke="none">
<path d="M11295 15229 c-3 -8 -18 -99 -34 -204 -16 -104 -46 -287 -65 -405
-82 -495 -239 -1428 -247 -1470 -4 -25 -19 -110 -33 -190 -104 -609 -233
-1278 -303 -1564 -62 -257 -151 -414 -266 -470 -144 -71 -472 -62 -1087 30
-359 53 -774 163 -1050 277 -162 67 -345 148 -375 166 -16 10 -77 47 -135 82
-209 128 -307 206 -497 396 -195 195 -219 229 -269 376 -54 160 -61 343 -19
515 14 56 32 116 40 132 8 15 22 50 31 76 20 61 105 187 224 334 250 310 684
708 1140 1046 96 72 231 172 300 223 69 51 132 96 140 101 42 24 -12 15 -151
-24 -828 -236 -1419 -461 -2369 -902 -172 -79 -477 -232 -595 -297 -308 -169
-722 -436 -1095 -707 -280 -203 -574 -475 -801 -741 -251 -293 -317 -371 -345
-406 -44 -55 -184 -241 -217 -288 -85 -123 -220 -330 -233 -358 -8 -18 -30
-57 -49 -87 -29 -48 -242 -470 -265 -525 -53 -127 -85 -203 -92 -215 -24 -40
-132 -374 -158 -490 -7 -30 -15 -59 -19 -65 -3 -5 -6 -19 -7 -30 -1 -11 -15
-72 -32 -136 -17 -64 -36 -158 -42 -210 -6 -52 -17 -128 -25 -169 -36 -192
-51 -725 -26 -920 12 -97 19 -148 47 -350 15 -110 74 -363 94 -405 5 -11 18
-54 29 -95 10 -41 33 -113 51 -160 18 -47 42 -116 55 -155 76 -232 293 -698
415 -895 5 -8 52 -85 103 -170 175 -289 386 -572 627 -840 128 -143 243 -257
505 -501 364 -339 760 -651 1125 -884 58 -37 130 -85 160 -105 55 -37 312
-190 405 -240 70 -38 461 -234 515 -258 120 -53 327 -138 410 -167 36 -13 97
-35 135 -49 254 -93 898 -283 927 -274 6 2 -32 30 -83 62 -165 103 -201 127
-359 240 -288 205 -428 318 -627 505 -291 273 -421 424 -610 706 -181 271
-313 614 -364 950 -39 258 8 596 113 814 45 92 62 117 137 191 67 67 106 96
176 132 272 140 595 184 915 124 303 -56 572 -177 870 -390 211 -150 318 -244
446 -391 176 -204 378 -512 515 -788 35 -70 68 -126 74 -124 11 4 194 827 219
982 19 123 126 437 192 565 129 253 366 489 582 581 71 31 87 33 206 37 208 6
331 -21 491 -109 215 -118 486 -374 806 -759 225 -271 497 -750 769 -1355 37
-82 124 -267 192 -410 116 -240 221 -485 262 -612 32 -97 85 -218 96 -218 11
0 64 121 96 218 41 127 146 372 261 611 69 143 169 356 223 475 113 249 213
453 292 596 31 55 77 138 103 185 54 97 207 331 287 437 97 130 356 419 470
526 359 335 546 424 872 415 133 -3 145 -6 218 -37 102 -43 233 -139 340 -248
165 -168 260 -329 345 -588 50 -151 58 -182 133 -530 128 -590 166 -759 175
-762 6 -2 35 47 65 109 57 115 260 463 309 527 15 20 56 74 91 121 99 132 213
262 287 327 176 155 449 345 618 430 136 70 351 145 480 169 175 33 205 36
345 36 221 -1 398 -43 610 -145 90 -44 116 -62 186 -133 70 -70 89 -97 137
-195 60 -123 74 -169 107 -354 30 -166 30 -351 1 -510 -32 -177 -100 -409
-154 -525 -14 -30 -36 -80 -50 -111 -69 -156 -277 -457 -462 -667 -116 -132
-353 -362 -490 -477 -188 -157 -550 -419 -755 -545 -74 -46 -129 -85 -123 -87
38 -13 693 186 1083 329 359 132 959 431 1265 632 44 29 121 78 170 110 267
169 647 453 866 645 47 42 130 114 184 161 130 112 638 617 704 700 350 440
480 629 673 975 86 154 128 240 235 475 14 30 33 73 43 95 10 22 25 58 33 80
9 22 34 90 57 150 24 61 50 137 60 170 10 33 27 85 38 115 31 86 61 184 78
258 70 314 77 352 106 637 26 258 8 761 -36 1045 -35 223 -134 620 -187 754
-10 27 -19 55 -19 62 0 8 -9 33 -19 57 -11 23 -22 53 -26 67 -4 14 -15 43 -26
65 -10 22 -32 74 -50 115 -17 41 -45 103 -60 138 -16 34 -29 65 -29 68 0 4
-29 63 -64 133 -173 338 -269 495 -503 819 -228 316 -735 883 -951 1064 -291
244 -546 428 -982 709 -85 55 -115 73 -305 187 -189 112 -631 333 -915 457
-41 18 -131 58 -200 90 -69 31 -159 71 -200 89 -41 18 -95 42 -120 54 -357
161 -1075 417 -1580 562 -36 10 -105 30 -154 44 -82 24 -122 27 -86 6 8 -5 69
-49 135 -98 66 -49 201 -149 300 -222 541 -401 1078 -920 1293 -1250 42 -64
118 -232 138 -305 8 -27 19 -112 25 -188 9 -118 8 -151 -6 -227 -19 -108 -41
-172 -87 -265 -66 -131 -475 -516 -637 -600 -19 -9 -66 -37 -104 -62 -219
-140 -644 -309 -1012 -403 -429 -109 -1031 -188 -1344 -177 -173 6 -234 20
-299 67 -52 37 -123 143 -163 240 -69 171 -178 701 -389 1900 -54 308 -312
1862 -341 2055 -6 44 -15 83 -18 88 -4 4 -36 -32 -71 -80 -91 -124 -387 -536
-633 -883 -116 -162 -229 -320 -251 -351 -23 -31 -56 -77 -73 -102 l-33 -47
-531 2 -532 3 -72 100 c-87 122 -405 567 -460 645 -178 251 -504 702 -516 714
-5 6 -10 4 -14 -5z"/>
</g>
</svg>
